/* XPM */
static char *result[] = {
/* columns rows colors chars-per-pixel */
"32 32 156 2 ",
"   c black",
".  c #0C0808",
"X  c #181111",
"o  c #241C0F",
"O  c #251919",
"+  c #3B2916",
"@  c #302118",
"#  c #312222",
"$  c #3C2A20",
"%  c #342A2A",
"&  c #47381E",
"*  c #533F2C",
"=  c #403333",
"-  c #433B3B",
";  c #6E4B0D",
":  c #56422F",
">  c #5F5339",
",  c #4F4444",
"<  c #524A4A",
"1  c #5E5353",
"2  c #5E5555",
"3  c #655C5C",
"4  c #6E644A",
"5  c #6D6464",
"6  c #6D6666",
"7  c #746B6B",
"8  c #746D6D",
"9  c #7C7575",
"0  c #8A7113",
"q  c #817923",
"w  c #A47B30",
"e  c #847C6F",
"r  c #837C7C",
"t  c #88802A",
"y  c #978022",
"u  c #A48E30",
"i  c #AC853A",
"p  c #A49830",
"a  c #A89D35",
"s  c #D89303",
"d  c #DC9606",
"f  c #DC9B06",
"g  c #DE9909",
"h  c #DD9F0D",
"j  c #E19C0B",
"k  c #E29D0D",
"l  c #E39F0E",
"z  c #CBAA09",
"x  c #CBAB0C",
"c  c #D6A001",
"v  c #DCA406",
"b  c #D6A901",
"n  c #DEAE09",
"m  c #D6B501",
"M  c #D6B405",
"N  c #D8B603",
"B  c #DCB306",
"V  c #D8B506",
"C  c #D8B903",
"Z  c #DAB804",
"A  c #DABB04",
"S  c #DCB806",
"D  c #DCB906",
"F  c #DCBB07",
"G  c #DCBC06",
"H  c #DEB609",
"J  c #DEBC08",
"K  c #DEBC09",
"L  c #DFBE0A",
"P  c #DEB90F",
"I  c #D3A611",
"U  c #D3B311",
"Y  c #D7B91C",
"T  c #E1AA0B",
"R  c #E3AD0E",
"E  c #E1B90B",
"W  c #E0BD0A",
"Q  c #E1BE0B",
"!  c #E1BF0B",
"~  c #E5BE0F",
"^  c #E6A211",
"/  c #E7A312",
"(  c #E4A214",
")  c #E8A413",
"_  c #EAA615",
"`  c #EBA716",
"'  c #E6B011",
"]  c #E8B213",
"[  c #DFA224",
"{  c #DCBE26",
"}  c #DCBF2F",
"|  c #E0A323",
" . c #E6AF3A",
".. c #D4C700",
"X. c #D6C705",
"o. c #D8C203",
"O. c #DCC006",
"+. c #DCC106",
"@. c #DAC404",
"#. c #DCC506",
"$. c #D8CA03",
"%. c #DCCD06",
"&. c #DCCE07",
"*. c #DEC809",
"=. c #DED009",
"-. c #DAC319",
";. c #E1C20B",
":. c #E1C00C",
">. c #E3C10E",
",. c #E3C20E",
"<. c #E5C30F",
"1. c #E1CB0B",
"2. c #E0D10A",
"3. c #E1D00B",
"4. c #E1D30B",
"5. c #E2D40D",
"6. c #E3D60E",
"7. c #E6C411",
"8. c #E6C511",
"9. c #E7C612",
"0. c #E6C516",
"q. c #E8C213",
"w. c #E8C713",
"e. c #E8C813",
"r. c #EAC915",
"t. c #EBCA16",
"y. c #E6D616",
"u. c #E6D911",
"i. c #E7DA12",
"p. c #E8DB13",
"a. c #EBDE16",
"s. c #DFC124",
"d. c #DEC129",
"f. c #DFD224",
"g. c #E0C123",
"h. c #E0D323",
"j. c #E6CB3A",
"k. c #A18041",
"l. c #AB894B",
"z. c #B49355",
"x. c #B9A446",
"c. c #B0A650",
"v. c #B4AA55",
"b. c #898166",
"n. c #E1C45E",
"m. c #8B8484",
"M. c #DEC591",
"N. c #E1D38B",
"B. c #E3D68E",
"V. c #E6CD99",
"C. c #E6D999",
"Z. c #E6DCA8",
"A. c #DAD8D8",
"S. c #DCDADA",
"D. c #DEDDDD",
"F. c #E6E5E5",
/* pixels */
"= , , 6 6 6 , X X   , 6 6 6 , X = , . , 6 6 = X = , , 6 6 6 , X ",
"3 m.m.m.m.m.m., X m.m.m.m.m.m., 3 < m.m.m.m.m.X 3 m.m.m.m.m.m., ",
"9 m.m.m.m.m.m.- e v.v.v.v.v.v.q c.t v.v.v.v.v.o 9 m.m.m.m.m.m.- ",
"9 m.m.m.m.m.m.% b.a.a.a.a.a.a.&.$.a.a.a.a.a.a.& 9 m.m.m.m.m.m.% ",
"2 m.m.m.m.m.m., 4 a.a.a.a.a.a.4.&.&.i.a.a.a.a.> 2 m.m.m.m.m.m., ",
"9 m.m.m.m.m.f.X.y.t.t.t.t.t.t.Z w.t.m t.t.t.t.M 0.s.m.m.m.m.m.O ",
", m.m.m.m.m.h.4.3.t.t.t.t.t.t.! ! t.:.t.t.t.t.! ! g.m.m.m.m., 5 ",
"# , 9 , a p -.+.O.! w.N.B.n.' v v T ] c R ! 8.D D U x.u 2 = , = ",
"= , , X u.5.J N D D K D.S.M.d s d d d g d K D N D D K K # = # X ",
"3 m.m.m.$.5.e.! K 8.8.F.F.V.g d g l ^ g j K K D K 8.8.8.# 6 # # ",
"9 m.m.m.t.D 9.L { F.F.F.F.F.F.A.D K 8.D K 6.u.A D 8.8.8.# # = O ",
"9 m.m.m.t.>.9.F d.F.F.F.F.F.F.S.K 8.D D D %.%.G K 8.8.8.6 = 6 # ",
"2 m.m.m.t.N 9.K P  . .F.F.Z.j.} K K D D ,.%.u.G K 8.8.8.6 6 6 # ",
"9 m.m.m.t.t.>.m B ^ ^ F.F.C.8.Z D D ! D 8.=.%.G D 8.8.8.6 6 6 O ",
", m.m.m.N 7.D K H ^ ^ F.F.C.8.D K 8.! ! 8.4.%.G K 8.8.8.6 6 6 # ",
"# , 9 , W K F D B d d D K K D D ! D D D D =.4.G D D D D = = # # ",
". < - , 8.8.! N H j j 8.8.8.! N K ! ! 8.,...4.C D D K W # = # X ",
"1 , 7 m.t.t.t.! ~ ` ` t.t.t.t.! <.t.t.t.t.a.2.;.K 8.8.8.6 6 = # ",
", r m.m.t.t.t.L q.` ` t.t.t.t.L w.t.t.t.t.a.a.C D 8.8.8.6 6 6 O ",
", m.m.m.t.t.r.F q.` ` t.t.t.t.F w.t.t.t.t.a.a.C K 8.8.8.6 6 6 # ",
"2 m.m.m.t.t.t.! E ` ` t.t.t.t.! ,.t.t.t.t.a.a.;.K 8.8.8.6 6 6 # ",
"9 m.m.m.t.t.t.Z B / ` t.t.t.t.Z w.t.t.t.t.a.a.A D 8.8.8.6 6 6 O ",
", m.m.m.t.t.t.! 9.D t.a.a.a.a.4.4.a.a.a.a.t.t.! K Q d ^ 6 6 6 # ",
"# , 9 , ,.! 8.D >.W ! 4.6.4.u.%.%.4.p.4.6.! 8.D D S d d = = # # ",
"# # = = 0 y z N D D D *.#.*.#.o.*.1.1.@.1.8.K b n I w i 6 6 , X ",
"= 6 6 6 6 6 x D K D ! 8.8.8.K D <.t.t.w.r.t.t.f l | m.m.m.m.m., ",
"# 6 6 6 6 6 Y M V K ,.8.8.8.8.Z w.t.t.t.r.t.t.h ( [ m.m.m.m.m.- ",
"= 6 6 6 6 6 6 # * ^ ^ ^ ^ ^ ^ d ) ` ` k ` ) _ + 6 m.m.m.m.m.r % ",
"= 6 6 6 6 6 6 # : ^ ^ ^ ^ ^ ^ d s j j g l _ ) + 2 m.m.m.m.m.m., ",
"# 6 6 6 6 = # O $ k.k.k.k.k.k.; l.z.z.l.z.z.z.@ 8 m.m.m.m.m.r O ",
"= 6 6 6 6 = 6 # = 6 6 6 6 6 6 # , m.m.9 m.m.m., , 8 m.m.m.m.r , ",
"# # # # = = # # # # # # = = # # # , 9 2 2 , 6 # # , 6 , 2 , 6 # "
};
