/* XPM */
static char *result[] = {
/* columns rows colors chars-per-pixel */
"32 32 152 2 ",
"   c #2E1C1F",
".  c #38171F",
"X  c #3D1C1C",
"o  c #35271D",
"O  c #3B221C",
"+  c #36291E",
"@  c #3C2D1B",
"#  c #3E301C",
"$  c #1C1F27",
"%  c #151C2A",
"&  c #1A1E28",
"*  c #251D23",
"=  c #2A1D23",
"-  c #301F22",
";  c #1D2027",
":  c #1E2129",
">  c #222125",
",  c #2E2123",
"<  c #2F2820",
"1  c #212228",
"2  c #2D242C",
"3  c #332522",
"4  c #372A24",
"5  c #382C21",
"6  c #3B2B29",
"7  c #3F3220",
"8  c #272C37",
"9  c #2A2F39",
"0  c #342E37",
"q  c #382D31",
"w  c #352E38",
"e  c #30343E",
"r  c #3D373D",
"t  c #373B3E",
"y  c #411E1A",
"u  c #56340F",
"i  c #5A370F",
"p  c #5D3B0E",
"a  c #462417",
"s  c #492616",
"d  c #4D2B15",
"f  c #442219",
"g  c #482618",
"h  c #442B1B",
"j  c #4D2B19",
"k  c #512E15",
"l  c #522F18",
"z  c #433219",
"x  c #4E3219",
"c  c #553214",
"v  c #593614",
"b  c #5C3B13",
"n  c #53321B",
"m  c #59361B",
"M  c #513A18",
"N  c #5E3B1B",
"B  c #613E0E",
"V  c #623F11",
"C  c #613E1B",
"Z  c #432C21",
"A  c #443521",
"S  c #45382C",
"D  c #4E3A2F",
"F  c #513A2C",
"G  c #4A3934",
"H  c #4D3D3C",
"J  c #65420D",
"K  c #69450D",
"L  c #6D490F",
"P  c #654312",
"I  c #694613",
"U  c #6D4A13",
"Y  c #64411C",
"T  c #714D13",
"R  c #765216",
"E  c #795516",
"W  c #77531B",
"Q  c #7B5718",
"!  c #7D5A1B",
"~  c #534022",
"^  c #51423C",
"/  c #634020",
"(  c #6A4721",
")  c #353A42",
"_  c #3A3E44",
"`  c #433A41",
"'  c #3D4448",
"]  c #474440",
"[  c #4B4544",
"{  c #414549",
"}  c #454B4D",
"|  c #524442",
" . c #514B43",
".. c #594F4B",
"X. c #59524E",
"o. c #494C52",
"O. c #4C5153",
"+. c #4C5159",
"@. c #535555",
"#. c #5F5B57",
"$. c #515559",
"%. c #5E565A",
"&. c #555A5A",
"*. c #5A5D5D",
"=. c #675944",
"-. c #685A46",
";. c #5B615C",
":. c #6B615F",
">. c #5B5F62",
",. c #635E60",
"<. c #5F6267",
"1. c #626563",
"2. c #656B65",
"3. c #696E65",
"4. c #646769",
"5. c #666A6C",
"6. c #6A6D6B",
"7. c #6D736C",
"8. c #6F796F",
"9. c #71756D",
"0. c #7F766D",
"q. c #6B6F71",
"w. c #6D7170",
"e. c #747673",
"r. c #757A73",
"t. c #797C76",
"y. c #777A7B",
"u. c #7C7D7B",
"i. c #815D1C",
"p. c #817D78",
"a. c #7E817D",
"s. c #82857F",
"d. c #838683",
"f. c #868A84",
"g. c #8D8A86",
"h. c #878989",
"j. c #8C8D8C",
"k. c #8B928A",
"l. c #92938E",
"z. c #949591",
"x. c #959893",
"c. c #9B9896",
"v. c #9D9D98",
"b. c #9DA09A",
"n. c #A2A39E",
"m. c #A6A5A3",
"M. c #ADA9A7",
"N. c #ACABAA",
"B. c #B6ADA4",
"V. c #B3ACAA",
"C. c #B3B4B1",
"Z. c None",
/* pixels */
"Z.Z.Z.Z.Z.Z.Z.Z.Z.Z.Z.g.z.m.m.M.c.1.H ) w Z.Z.Z.Z.Z.Z.Z.Z.Z.Z.Z.",
"Z.Z.Z.Z.Z.Z.Z.Z.V.n.O.w.r.} a.t.a.;.f.d.6.o.6.,.%.Z.Z.Z.Z.Z.Z.Z.",
"Z.Z.Z.Z.Z.B.o.o.w.t.e.2.;.e.;.:.o.q.6.e.e s.7.t.t.>.r e.Z.Z.Z.Z.",
"Z.Z.l.j.x.f.&.;.} 5.<.1.y.f.l.&.6.u.$.4.$.2.7.) y.f.3.*.%.w Z.Z.",
"g.j.7.7.7.*.y.2.2.O.7.7.} s.9.9.% 6.2.9.>.h.9._ <.2.r.y.7.+.b.` ",
"6.w.e.&.5.*.} &.9.o.S a d a s O X a s h F &.1.>.f.$.9.@.<.l.y.9.",
"' e _ 5.r.r.{ t c a d y y X y O O a a a y s l 0.e.@.v.m.4.6.7.3.",
"h.r.7.t.} 9 6 s a y s y a y c O @ k s k y s y a a d D *.} d.x.k.",
"2.2.7.3.F a s f f f k k K k J o @ d c B d C a d y d y s ^ a.2.7.",
"8 O.D s d f f s k s J v J y p o @ B v J k T d I k c l a a M 8 $.",
"a.a.v a k f k c k d P s u n p o @ P l l m B v T k B C k O u =.7.",
"9.#.k a v y Q v b k I k P Y U o o k K c m u F U s B C d k b =.8.",
"O.^ O O V O # 5 o = A O W v i > v k J K h o 4 A , # O d 3 + ] ;.",
"N...* * P A > $ & & & 3 b N u % p v v p , ; & ; $ ; = Q $ & r.x.",
"2.^ d a U C U c I c P d I v c o J p Y J v v a J c K X ! d i y.7.",
"2.[ d a R d p c U c U k T c K o p J N L c P d V v p X i.c i y.3.",
"_ q d a U C p k T X L k P s i o p k Q U / I k B j J m ! k C M.m.",
"a.:.k g b C c l T c K l L a p o o k ! J C U d K g c m i.v b a.7.",
"7.X.k g C C I l E d B k L u p o O l Q I Y U N K l B m i.c V r.3.",
"7.X.k g P N I c I C J n P z B o o B Z c U K s J c T s i.O b &.' ",
"9 | d s T m I l V Y J l N $ J # o c % s E p k c v U a Q X b a.x.",
"f.| d s b C T c P n J c z s # # + # C $ T K s i a P j Q f v d.7.",
"r.H d y B C T v J l B c R c K o + J b b U K d R Y P d d c d a.<.",
"&.G k s B C V c J v B C R x B o + J c L d L . E Y U k d v u m.f.",
"f.6 s s p C i c J n p Y R v p % @ V v J c b c R N P d U j u a.8.",
"2.      > % $ $ % % % > ~ n p % u k j z & % % % % % & : % % y.8.",
"3.^ O a U M o v K d P C N f v ; u k j k c a l U u p h v , z u.7.",
"3.2 d a U c U v b c J m v c p % B k b s T a k U c b m U c p j.t.",
"k.[ s a R M U c V k E l U d v % o v d k U I n K d K x P x J u.7.",
"r.H d s U U K d p k R y b v v o o P y v U U n K c L d J s p r.7.",
"d.2 k d J v J d B m B k c b J @ o P g K v T X K c E d P a b C.k.",
"r.[ k c p k J d u c J k N N p @ o p d i u C . K a R d b y b 6.8."
};
