/* XPM */
static char *c242230dc93940eac6cf7f98688400efnnYnVGA4lMZ2AUrN[] = {
/* columns rows colors chars-per-pixel */
"32 32 71 1 ",
"  c #0C0808",
". c #160F0F",
"X c #1D1414",
"o c #241B1B",
"O c #2A1E1E",
"+ c #2D2222",
"@ c #322525",
"# c #352A2A",
"$ c #392E2E",
"% c #3D3232",
"& c #413636",
"* c #443B3B",
"= c #493E3E",
"- c #4C4343",
"; c #4F4848",
": c #504747",
"> c #514848",
", c #544848",
"< c #554A4A",
"1 c #554B4B",
"2 c #534C4C",
"3 c #544C4C",
"4 c #554F4F",
"5 c #584E4E",
"6 c #594F4F",
"7 c #575151",
"8 c #585151",
"9 c #5B5050",
"0 c #595252",
"q c #5B5353",
"w c #5C5555",
"e c #5E5757",
"r c #5F5858",
"t c #605757",
"y c #615858",
"u c #615959",
"i c #635959",
"p c #645B5B",
"a c #645D5D",
"s c #675D5D",
"d c #665E5E",
"f c #675F5F",
"g c #686161",
"h c #696262",
"j c #6A6262",
"k c #6B6262",
"l c #6A6363",
"z c #6C6565",
"x c #6D6565",
"c c #6D6767",
"v c #706767",
"b c #726A6A",
"n c #736C6C",
"m c #786F6F",
"M c #7A7272",
"N c #7B7373",
"B c #7E7777",
"V c #7F7878",
"C c #827B7B",
"Z c #847D7D",
"A c #857E7E",
"S c #867E7E",
"D c #867F7F",
"F c #878080",
"G c #8A8282",
"H c #8B8383",
"J c #8B8484",
"K c #8B8585",
"L c #8C8585",
"P c #8C8686",
"I c #8D8686",
/* pixels */
"&78udd:X +3daa;X+%+-hr*.%72rga;X",
"pGGJJJV%XcJJJJV%-;rFJJcX7JJJJJV*",
"jLJJJJD=>JJJJJD-w7nJPJV+rPJJJJF-",
"xLJJJJF%uLJJJJZ&%rNJJPV%rJJJJJD*",
"gJFJJJF-wJJJJJF-%;gJJJF-wLJJJJF-",
"xJJJJLD%uJJJJJZ%rF7FFJJ%uJJJJJN$",
"rGJJJJB=7JJGJJZ*7J2gJJF%3JGGGF7&",
"$;w-28;#@;w-272@#-*#27;#$3w;2=$%",
"%;;#-*#XO$$#%%+Xo&O&&@Oo+$%#@$#O",
"aJGb=7x%%jajza-O&9=&:&*O&jdu&=&@",
"jLJJN3x%@zczxxw+@==&&=5@$jxc=@&@",
"xLJJJ;;%%zczxxu+&t&@##&O&xxcp==@",
"dJJJG&-$%zzzzzz%&<&&*&t&%kkvvjt&",
"xLGJb27@%czzczz%@=&&u&*#%kxkvvf&",
"rJJD2u:$%gzzjcr@&f==p:*#&fvffvu$",
"#;r-=-$+O$%$%%$o#&@@#$$@O$&&&&$O",
"+-#&ww-X$;;7ww-X&,,5;o#XO$$%&%+X",
"-rjDJJV%7JFJJJV%<SHLJn;%%jdjza*+",
"%nJJJJD-rJJJJJF-tIHHJJjo#jzcxxu@",
"7FJJJJZ%aJJJJJF%pIHHJJV+%zczxxu@",
"aJJJJJF--FJJJJF=9LJJJJF-%xxxcxx&",
"zJJJJJD%orJJJLF%uLJLJLZ%#7jxxcz%",
"wGJGJJC-%-ZFJJF*5HLJGLD=$--djxr#",
"$>7;222+%$*-322@#:9-;8:@O###%&#o",
"+#$$%$+X+@+#&$@X%>>@*w*.$;;338-X",
"&jdjxd=+#&&djd*+7JJvnLV@<FFJGLC=",
"%jxxxxu++&rxxxu+rJLnMJF=7JJJJJZ-",
"*kxcxxu+$jxcxxu@wCM7xnc$8LJJJGZ*",
"&jxxxxj#%jxxxxj%%jd-wMk+2GJGJJF-",
"&xxxx>&O$jxxxxj%rJJxNLF%wJJGJJV%",
"&jkjw=w@%dzdjxu@3LJbnLC*;MFFDFV-",
"@%*$##$O+%&%%=$O%5u;3u8$$>w>287$"
};
