/* XPM */
static char *result[] = {
/* columns rows colors chars-per-pixel */
"32 32 245 2 ",
"   c black",
".  c #090502",
"X  c #0C0808",
"o  c #181111",
"O  c #251919",
"+  c #312222",
"@  c #382621",
"#  c #342A2A",
"$  c #3B3232",
"%  c #583A27",
"&  c #403333",
"*  c #443532",
"=  c #433B3B",
"-  c #473A3A",
";  c #69401C",
":  c #53443F",
">  c #7F5127",
",  c #614431",
"<  c #624938",
"1  c #36366C",
"2  c #312570",
"3  c #4F4444",
"4  c #524A4A",
"5  c #564B4B",
"6  c #5E5353",
"7  c #5E5555",
"8  c #6E5441",
"9  c #6F5947",
"0  c #69584E",
"q  c #655C5C",
"w  c #6D6464",
"e  c #6D6666",
"r  c #796B62",
"t  c #746B6B",
"y  c #746D6D",
"u  c #7E736E",
"i  c #7C7575",
"p  c #8B551F",
"a  c #9A5A17",
"s  c #975A1B",
"d  c #9C5D1B",
"f  c #9F5E1A",
"g  c #985B1E",
"h  c #9A5E1F",
"j  c #9C5D1C",
"k  c #885727",
"l  c #87572A",
"z  c #83562E",
"x  c #915C26",
"c  c #815832",
"v  c #8A5E32",
"b  c #9B6023",
"n  c #9C6020",
"m  c #9C6123",
"M  c #9E6122",
"N  c #986026",
"B  c #9C662F",
"V  c #A76520",
"C  c #A56625",
"Z  c #A96721",
"A  c #A96B29",
"S  c #A86B2B",
"D  c #AB6E2E",
"F  c #AC6E2E",
"G  c #AC6F2E",
"H  c #AD6F2F",
"J  c #B16F2A",
"K  c #B2722F",
"L  c #BC772F",
"P  c #BC782F",
"I  c #A16C37",
"U  c #A86F32",
"Y  c #A3713E",
"T  c #AF793F",
"R  c #B07230",
"E  c #B47431",
"W  c #B47533",
"Q  c #B87836",
"!  c #B57739",
"~  c #B5793A",
"^  c #C57E34",
"/  c #C17F39",
"(  c #936D4A",
")  c #98714C",
"_  c #9D744D",
"`  c #8C6F56",
"'  c #826B58",
"]  c #836D5A",
"[  c #836D5B",
"{  c #846D5A",
"}  c #866F5B",
"|  c #90755D",
" . c #A27447",
".. c #B57E45",
"X. c #8E7968",
"o. c #907A66",
"O. c #847A75",
"+. c #837C7C",
"@. c #BF803D",
"#. c #CD8539",
"$. c #CF8638",
"%. c #CB863D",
"&. c #BA8653",
"*. c #BE8D59",
"=. c #BF8E59",
"-. c #98816F",
";. c #8C817C",
":. c #8C817D",
">. c #9B8471",
",. c #9C8777",
"<. c #96867C",
"1. c #998679",
"2. c #A18872",
"3. c #A28873",
"4. c #A18B73",
"5. c #C08547",
"6. c #CA8A41",
"7. c #CA8944",
"8. c #C3894A",
"9. c #C98B4B",
"0. c #CD8D49",
"q. c #CE904F",
"w. c #CB994A",
"e. c #DD9242",
"r. c #D1924F",
"t. c #DC9449",
"y. c #D8954F",
"u. c #D89D4C",
"i. c #C88E51",
"p. c #C48F58",
"a. c #CB9155",
"s. c #C1915D",
"d. c #C0915E",
"f. c #C1925F",
"g. c #C3925E",
"h. c #C4935E",
"j. c #CD965D",
"k. c #D89856",
"l. c #D0965A",
"z. c #D2995C",
"x. c #D99A58",
"c. c #DA9B58",
"v. c #DC9C59",
"b. c #E39746",
"n. c #E09648",
"m. c #E39C52",
"M. c #E29E55",
"N. c #DEAA58",
"B. c #E3A15B",
"V. c #E0A05D",
"C. c #E5A35E",
"Z. c #E7A45F",
"A. c #E1AB5B",
"S. c #E3AE5D",
"D. c #F0AA5F",
"F. c #C39461",
"G. c #C39462",
"H. c #C69663",
"J. c #C79764",
"K. c #C99865",
"L. c #CF9B64",
"P. c #CE9C67",
"I. c #CE9D68",
"U. c #D59C61",
"Y. c #D19D67",
"T. c #D39E67",
"R. c #D19E69",
"E. c #D9A065",
"W. c #D8A166",
"Q. c #DBA267",
"!. c #D7A36C",
"~. c #DCA46A",
"^. c #D8A46D",
"/. c #DFA970",
"(. c #E5A460",
"). c #E5A461",
"_. c #E0A567",
"`. c #E9A863",
"'. c #EFAB62",
"]. c #EAAA66",
"[. c #E0A86D",
"{. c #EAAC6B",
"}. c #F1AC62",
"|. c #E2AA70",
" X c #E4AC72",
".X c #E4AD72",
"XX c #E6AE73",
"oX c #E7AF74",
"OX c #E9AE70",
"+X c #EAAF70",
"@X c #ECB071",
"#X c #ECB173",
"$X c #EAB175",
"%X c #ECB376",
"&X c #EEB477",
"*X c #F1B271",
"=X c #F3B574",
"-X c #F6B775",
";X c #F5B973",
":X c #F7B875",
">X c #F1B779",
",X c #F4B97B",
"<X c #F8BB7A",
"1X c #F9BB7A",
"2X c #F8BD7B",
"3X c #FBBC7B",
"4X c #FCBC79",
"5X c #FDBD7B",
"6X c #F9BC7D",
"7X c #F9BD7D",
"8X c #FBBD7C",
"9X c #FBBE7E",
"0X c #FCBE7C",
"qX c #FDBE7D",
"wX c #FEBF7D",
"eX c #FDBF7F",
"rX c #F3C27A",
"tX c #FEC07F",
"yX c #FAC87D",
"uX c #F9D873",
"iX c #F9D17C",
"pX c #F9D37C",
"aX c #3125E6",
"sX c #8B8383",
"dX c #8B8483",
"fX c #8F8580",
"gX c #8B8484",
"hX c #ECB288",
"jX c #FFC080",
"kX c #FFC180",
"lX c #FFCD80",
"zX c #FAC189",
"xX c #FFD280",
"cX c #FFD380",
"vX c #FFD580",
"bX c #FFD880",
"nX c #FED980",
"mX c #FFD980",
"MX c #FFDA80",
"NX c #FFCD98",
"BX c #FFE680",
"VX c #FFEA80",
"CX c #FFEB80",
"ZX c #FFEC80",
"AX c #B7B2F4",
/* pixels */
"& 3 3 e e e 3 o o   3 e e e 3 o & 3 X 3 e e & o & 3 3 e e e 3 o ",
"q gXgXgXgXgXgX3 o gXgXgX3.(.D.D.D.D.D.U.<.gXgXo q gXgXgXgXgXgX3 ",
"i gXgXgXgXgXgX= i gXgX,.).wXbXZXZXCXxX4Xx.fXgXo i gXgXgXgXgXgX= ",
"i gXgXgXgXgXgX# i gXgX2.}.cXmXMXMXMXmXlXwXn.gX+ i gXgXgXgXgXgX# ",
"7 gXgXgXgXgXgX3 7 gXgX2.}.kXkXkXkXkXkXkXkXe.gX3 7 gXgXgXgXgXgX3 ",
"i gXgXgXgXgXgXO i gXgX2.}.kXkXkXkXkXkXkXkX%.gXO i gXgXgXgXgXgXO ",
"3 gXgXgXgXgXgX3 3 gXgX>.Z.kXkXkXkXkXkXkXkX%.gX3 3 gXgXgXgXgX3 w ",
"+ 3 i 3 7 3 e + + 3 i 8 C./.!.XXkXjX:X5X=X! e + + 3 i 3 7 & 3 & ",
"& 3 3 o e 5 $ o + + & , C.2 1 4.kXqX#.t.l * + o + + & & + & + o ",
"q gXgXgXo 5 i 3 & e e { C.aXAXNXkX0XZ k : & & + & e e e + e + + ",
"i gXgXgXgX+ t = + e e [ V.hXzX3X1XW l.; & 7 e O + e e e + + & O ",
"i gXgXgXgX6 t # & e e e _ `.].L K ~.E.> @ + + + & e e e e & e + ",
"7 gXgXgXgXo t & & e e e ] D J 5._.>X>X9.9 + e + & e e e e e e + ",
"i gXgXgXgXgX6 X + e e e e x {.7XeXvXVXA.' & + + + e e e e e e O ",
"3 gXgXgXo w + & & e e e e x <XtX#XiXnXS.{ 3 + + & e e e e e e + ",
"+ 3 i 3 - & # + + + + + & p |.&Xm.@X9Xv.% & 3 + + + + + & & + + ",
"X 4 = 3 e e 3 o & 3 3 e ` n M.&Xy.+X9Xq.I . 3 o + + & - + & + o ",
"6 3 t gXgXgXgX3 q gXgXdX) P b.,XL.7.R.T.S :.- 3 & e e e e e & + ",
"3 +.gXgXgXgXgX= i gXgX-.$.^ Q ,XP.0.-XkXE ;.gXo + e e e e e e O ",
"3 gXgXgXgXgX+.# i gXgXX.V f 8X,XP.Y./ 6XR ;.gXo & e e e e e e + ",
"7 gXgXgXgXgXgX3 3 gXgX:.X.N 8X%XH.f.A oXG ;.gX3 & e e e e e e + ",
"i gXgXgXgXgXgXO + t gXgXgXB 2X^.d.F.z.M o.dXgXO + e e e e e e O ",
"3 gXgXgXgXgXgX3 y + gXgX1.N.pXR.U =.j.( gXgXgX3 & 3 + e e e e + ",
"+ 3 i 3 7 3 e + 6 - 3 3  .uXyXI.U *.g.Y 0 3 e + + + + + & & + + ",
"+ + & & + & + o + + + & z ;XoXa.d *.K.5.< e & X & 3 3 e e e 3 o ",
"& e e e e e & + & + 3 e _ *X Xi.a *.G...| sXgX+ 7 gXgXgXgXgXgX3 ",
"+ e e e e e e O + & 7 r &.OX[.~ H s.G.p.C ;.gX3 y gXgXgXgXgXgX= ",
"& e e e e e e + & e e } c.7XQ.F Q.J.G.T a u +.O e gXgXgXgXgX+.# ",
"& e e e e e e + & e @.6.'.$XW.j h m b g s O.i O 7 gXgXgXgXgXgX3 ",
"+ e e e e & + O + e u.BXrX.Xh.v i gXgXi gXgXgXO y gXgXgXgXgX+.O ",
"& e e e e & e + & e w.r.B.k.8.c 3 gXgXi gXgXgX3 3 y gXgXgXgX+.3 ",
"+ + + + & & + + + + + + & & + + + 3 i 7 7 3 e + + 3 e 3 7 3 e + "
};
