/* XPM */
static char *result[] = {
/* columns rows colors chars-per-pixel */
"32 32 180 2 ",
"   c black",
".  c #0C0808",
"X  c #181111",
"o  c #251919",
"O  c #312222",
"+  c #382621",
"@  c #3D2821",
"#  c #342A2A",
"$  c #3B3232",
"%  c #603B1D",
"&  c #533B2E",
"*  c #403333",
"=  c #463734",
"-  c #433B3B",
";  c #473A3A",
":  c #6B4729",
">  c #6C482A",
",  c #161640",
"<  c #4F4444",
"1  c #524B46",
"2  c #524A4A",
"3  c #564B4B",
"4  c #5E5353",
"5  c #5E5555",
"6  c #655C5C",
"7  c #7A624F",
"8  c #796351",
"9  c #746459",
"0  c #73645C",
"q  c #7B6A5F",
"w  c #6D6464",
"e  c #6F6765",
"r  c #6D6666",
"t  c #756862",
"y  c #746B6B",
"u  c #746D6D",
"i  c #7C7575",
"p  c #8C5824",
"a  c #8E5D2B",
"s  c #9A5F21",
"d  c #9B5F21",
"f  c #9A5F22",
"g  c #9C6020",
"h  c #966432",
"j  c #9C6936",
"k  c #94693F",
"l  c #A26423",
"z  c #A06526",
"x  c #AA6B27",
"c  c #A3682B",
"v  c #A6692A",
"b  c #B36F29",
"n  c #B7752F",
"m  c #AC6F30",
"M  c #A6713C",
"N  c #A6723D",
"B  c #A9723B",
"V  c #A8733D",
"C  c #B87530",
"Z  c #B87A3A",
"A  c #BA7E3F",
"S  c #816142",
"D  c #866546",
"F  c #906C46",
"G  c #B27A41",
"H  c #B47F47",
"J  c #8C6A63",
"K  c #837C7C",
"L  c #C48037",
"P  c #C1823D",
"I  c #C5833D",
"U  c #C9863F",
"Y  c #D18535",
"T  c #C9913F",
"R  c #BC8246",
"E  c #B7824A",
"W  c #B9824B",
"Q  c #BF9155",
"!  c #91857F",
"~  c #BC9064",
"^  c #C78846",
"/  c #CA8843",
"(  c #CF8940",
")  c #CE8A41",
"_  c #CF8A42",
"`  c #C88A47",
"'  c #C48A4D",
"]  c #D08C43",
"[  c #D99145",
"{  c #D79B4E",
"}  c #C78D51",
"|  c #C48E53",
" . c #C18C54",
".. c #CD9253",
"X. c #CB9256",
"o. c #CD9357",
"O. c #C4915B",
"+. c #CF9659",
"@. c #C8945E",
"#. c #D39452",
"$. c #D59551",
"%. c #D49656",
"&. c #DB9750",
"*. c #DD9A53",
"=. c #D1975B",
"-. c #DB9D5B",
";. c #E49949",
":. c #E59949",
">. c #E79B4A",
",. c #E69F53",
"<. c #CE9861",
"1. c #CB9A66",
"2. c #CD9A64",
"3. c #CE9C67",
"4. c #CF9D68",
"5. c #D49B60",
"6. c #DA9F60",
"7. c #D09E69",
"8. c #DEA569",
"9. c #DCA66E",
"0. c #DDA76F",
"q. c #DFA86E",
"w. c #DEA86F",
"e. c #E3A361",
"r. c #E2A362",
"t. c #E3A564",
"y. c #E5A765",
"u. c #F6B36C",
"i. c #E0AA70",
"p. c #E3AC72",
"a. c #E5AC70",
"s. c #E7AD70",
"d. c #E5AD73",
"f. c #E8AE71",
"g. c #EDB274",
"h. c #EEB375",
"j. c #EDB377",
"k. c #EFB578",
"l. c #F2B574",
"z. c #F3B677",
"x. c #F6B774",
"c. c #FBBB77",
"v. c #F0B678",
"b. c #F2B779",
"n. c #F7B979",
"m. c #F7BA7B",
"M. c #F9BB7A",
"N. c #FABB7A",
"B. c #F8BC7D",
"V. c #FCBD7C",
"C. c #FCBE7C",
"Z. c #FCBE7D",
"A. c #FEBF7D",
"S. c #FCC57B",
"D. c #FEC07F",
"F. c #FAC57D",
"G. c #FDCC7F",
"H. c #F9D078",
"J. c #FAD17B",
"K. c #FCD67E",
"L. c #FAD87B",
"P. c #FED97F",
"I. c #7D7DFF",
"U. c #8C6AB9",
"Y. c #8D8482",
"T. c #8B8484",
"R. c #EDB388",
"E. c #F0BB94",
"W. c #FEC080",
"Q. c #FFC180",
"!. c #FFC280",
"~. c #FFCA80",
"^. c #FFCE80",
"/. c #FFD080",
"(. c #FFD680",
"). c #FFD980",
"_. c #FFDA80",
"`. c #FFDD80",
"'. c #FFE380",
"]. c #FAD7B7",
/* pixels */
"* < < r r r < X X   < r r r < X * < . < r r * X * < < r r r < X ",
"6 T.T.T.T.T.T.< X T.T.Y.~ >.>.>.>.>.%.! T.T.T.X 6 T.T.T.T.T.T.< ",
"i T.T.T.T.T.T.- i T.T.~ u.~.)._._.^.c.<.! T.T.X i T.T.T.T.T.T.- ",
"i T.T.T.T.T.T.# i T.T.>.~._.'.'.'.`./.c.%.T.T.O i T.T.T.T.T.T.# ",
"5 T.T.T.T.T.T.< 5 T.T.>.!.!.!.!.!.!.!.Q.:.T.T.< 5 T.T.T.T.T.T.< ",
"i T.T.T.T.T.T.o i T.T.>.Q.Q.Q.Q.Q.Q.Q.Q.] T.T.o i T.T.T.T.T.T.o ",
"< T.T.T.T.T.T.< < T.T.[ Q.Q.Q.Q.Q.Q.Q.Q.] T.T.< < T.T.T.T.T.< w ",
"O < i < 5 < r O O < i ] B.v.b.Q.Q.C.A.Z./ < r O O < i < 5 * < * ",
"* < < X r 3 $ X O O * ] J , 1 Q.Q.( ;.G @ * O X O O * * O * O X ",
"6 T.T.T.X 3 i < * r r ] U.I.].Q.Q.C m & < * * O * r r r O r O O ",
"i T.T.T.T.O y - O r r ] R.E.W.W.^ +.a O * 5 r o O r r r O O * o ",
"i T.T.T.T.4 y # * r r q *.x.L n o.q.p + O O O O * r r r r * r O ",
"5 T.T.T.T.X y * * r r t V b A ..k.k.6.% 5 O r O * r r r r r r O ",
"i T.T.T.T.T.4 . O r r r S #.m.F.'.(.y.% r * O O O r r r r r r o ",
"< T.T.T.X w O * * r r r S t.D.S.P.K.e.> r < O O * r r r r r r O ",
"O < i < ; * # O O O O O : =.l.,.B.h.Y % O * < O O O O O * * O O ",
". 2 - < r r < X * < < r 9 M 8.&.B.g.Z 9 5   < X O O * ; O * O X ",
"4 < y T.T.T.T.< 6 T.T.T.T.h O.` 0.2.W T.T.T.; < * r r r r r * O ",
"< K T.T.T.T.T.- i T.T.T.T.h @.$.N.V.W T.T.T.T.X O r r r r r r o ",
"< T.T.T.T.T.K # i T.T.T.T.h f.| r.M.N T.T.T.T.X * r r r r r r O ",
"5 T.T.T.T.T.T.< < T.T.T.T.h z.E -.a.h T.T.T.T.< * r r r r r r O ",
"i T.T.T.T.T.T.o O y T.T.T.j n.X.' 5.k T.T.T.T.o O r r r r r r o ",
"< T.T.T.T.T.T.< u O T.T.T.W J.i.H d T.T.T.T.T.< * < O r r r r O ",
"O < i < 5 < r O 4 ; < < 5 B L.d.1.s i < 5 < r O O O O O * * O O ",
"O O * * O * O X O O O * O = P p.7.f < o < r * . * < < r r r < X ",
"* r r r r r * O * O < r r 8 g 9.p.z T.i K T.T.O 5 T.T.T.T.T.T.< ",
"O r r r r r r o O * 5 r 7 } l 3.p.z T.T.K T.T.< u T.T.T.T.T.T.- ",
"* r r r r r r O * r r 0 R s.I 4.p.z T.3 T.i K o r T.T.T.T.T.K # ",
"* r r r r r r O * r r r D T { p.w.v < * 5 K i o 5 T.T.T.T.T.T.< ",
"O r r r r * O o O r r t Q H.G.j.3. .T.i T.T.T.o u T.T.T.T.T.K o ",
"* r r r r * r O * r r e F x ) _ U c T.i T.T.T.< < u T.T.T.T.K < ",
"O O O O * * O O O O O O * * O O O < i 5 5 < r O O < r < 5 < r O "
};
