/* XPM */
static char *result[] = {
/* columns rows colors chars-per-pixel */
"32 32 149 2 ",
"   c black",
".  c #0C0808",
"X  c #181111",
"o  c #251919",
"O  c #38251A",
"+  c #312222",
"@  c #392722",
"#  c #342A2A",
"$  c #3B3232",
"%  c #5D3E26",
"&  c #403333",
"*  c #453B3B",
"=  c #594438",
"-  c #6A4528",
";  c #644733",
":  c #4F4444",
">  c #504443",
",  c #5C4940",
"<  c #554B4B",
"1  c #5E5555",
"2  c #6A5544",
"3  c #655C5C",
"4  c #7D6349",
"5  c #756457",
"6  c #786250",
"7  c #73645B",
"8  c #5F4776",
"9  c #544C70",
"0  c #6D6666",
"q  c #746C6C",
"w  c #7C7575",
"e  c #9F5E16",
"r  c #985B18",
"t  c #A3641F",
"y  c #885520",
"u  c #8B5926",
"i  c #84582B",
"p  c #8C5D2C",
"a  c #855E36",
"s  c #9D6326",
"d  c #886139",
"f  c #936435",
"g  c #966A3A",
"h  c #9C6E3E",
"j  c #A76926",
"k  c #A86D2C",
"l  c #B1732F",
"z  c #BD792D",
"x  c #A36D33",
"c  c #AC7333",
"v  c #AD763A",
"b  c #B47834",
"n  c #B17A3C",
"m  c #85654A",
"M  c #88694D",
"N  c #916A42",
"B  c #996E41",
"V  c #9D7040",
"C  c #856A52",
"Z  c #8E6F54",
"A  c #92775D",
"S  c #A67540",
"D  c #AD7C47",
"F  c #A77F54",
"G  c #8C7765",
"H  c #89786C",
"J  c #977C61",
"K  c #947C69",
"L  c #837C7C",
"P  c #BF8839",
"I  c #C18038",
"U  c #C9873E",
"Y  c #BA8142",
"T  c #BD8847",
"R  c #BB874E",
"E  c #BD8B53",
"W  c #8C817C",
"Q  c #958170",
"!  c #9A877A",
"~  c #A58567",
"^  c #A98360",
"/  c #AA8A69",
"(  c #BC9065",
")  c #A38A74",
"_  c #B29273",
"`  c #C38644",
"'  c #CB8D46",
"]  c #C58C4E",
"[  c #CE8E49",
"{  c #CF9D4D",
"}  c #D69246",
"|  c #D89245",
" . c #D4944C",
".. c #D89349",
"X. c #C48D54",
"o. c #C39057",
"O. c #CB9254",
"+. c #C3925C",
"@. c #C9955D",
"#. c #D29655",
"$. c #D99750",
"%. c #DD9C55",
"&. c #D59B5C",
"*. c #DA9D5E",
"=. c #E59C4D",
"-. c #DBA85D",
";. c #E2A15A",
":. c #ECA759",
">. c #EEA958",
",. c #C59663",
"<. c #CA9965",
"1. c #CC9B6C",
"2. c #D39D63",
"3. c #D99C62",
"4. c #D19F68",
"5. c #DCA265",
"6. c #DDA66B",
"7. c #DAA771",
"8. c #E4A665",
"9. c #ECAD66",
"0. c #E5AA6B",
"q. c #EAAD6B",
"w. c #EDB36D",
"e. c #E6AF74",
"r. c #ECB374",
"t. c #EDB976",
"y. c #F1B574",
"u. c #F5B974",
"i. c #F8BA76",
"p. c #F1B779",
"a. c #F2BA79",
"s. c #FABD7B",
"d. c #EFC56D",
"f. c #F0C776",
"g. c #F7CB75",
"h. c #F4C27A",
"j. c #FBC17F",
"k. c #FAD67F",
"l. c #6C54C7",
"z. c #8B8484",
"x. c #C59699",
"c. c #E7B89B",
"v. c #FEC381",
"b. c #FECC80",
"n. c #FED280",
"m. c #FEDA80",
"M. c #FFE081",
"N. c #F3C9A1",
"B. c #A799D7",
/* pixels */
"& : : 0 0 0 : X X   : 0 0 0 : X & : . : 0 0 & X & > > 0 0 0 > X ",
"3 z.z.z.z.z.z.: X z.z.! 2.:.>.>.>.>.5.) z.z.z.X 3 z.z.z.z.z.z.> ",
"w z.z.z.z.z.z.* w z.) <.u.b.m.m.m.k.h.3.! z.z.X w z.z.z.z.z.z.* ",
"w z.z.z.z.z.z.# w z.&.u.v.m.m.M.m.m.k.9./ z.z.+ w z.z.z.z.z.z.# ",
"1 z.z.z.z.z.z.: 1 z.=.s.v.v.v.v.v.v.v.9./ z.z.> 1 z.z.z.z.z.z.: ",
"w z.z.z.z.z.z.o w z...s.v.v.v.v.v.v.s.9./ z.z.o w z.z.z.z.z.z.o ",
": z.z.z.z.z.z.: : z.| s.v.v.v.v.v.c.g.8.~ z.z.> : z.z.z.z.z.: 0 ",
"+ : w : 1 : 0 + + > T 0.i.y.s.v.7.( 3.%.m > 0 + + : w : 1 & > $ ",
"$ > > X 0 < $ X + + % B } | i.v._ 9 8 3.- & + X + + & & + & + X ",
"3 z.z.z.X < w > & 0 0 7 x I w.j.N.B.l.3.4 & $ + & 0 0 0 + 0 + + ",
"w z.z.z.z.+ q * + 0 0 0 d Y #.0.r.c.x.X.; 1 0 o + 0 0 0 + + & o ",
"w z.z.z.z.1 q # & 0 0 7 h 2.&.' U ;.;.f @ + + + & 0 0 0 0 & 0 + ",
"1 z.z.z.z.X q & & 0 0 m X.t.p.*.` I k % 1 + 0 + & 0 0 0 0 0 0 + ",
"w z.z.z.z.z.1 . + 0 0 M -.k.n.s.y.#.y @ 0 & + + + 0 0 0 0 0 0 o ",
": z.z.z.X 0 + & & 0 0 Z -.k.g.y.c.q.p > 0 : + + & 0 0 0 0 0 0 + ",
"+ : w : * & # + + + + - &.j.w.;.u.5.y @ + & : + + + + + & & + + ",
". < * : 0 0 : X $ : , h #.p.8.%.9.=.j C 1   > X + + & * + & + X ",
"1 : q z.z.z.z.: 3 z.K n 5.0.#.<.i.| z D W z.* > & 0 0 0 0 0 & + ",
": L z.z.z.z.z.* w z.G Y p.8.#.5.y.$.z b Q z.z.X + 0 0 0 0 0 0 o ",
": z.z.z.z.z.w # w z.G Y t.[ @.4.p.q.k k J z.z.X & 0 0 0 0 0 0 + ",
"1 z.z.z.z.z.z.: : z.H D &.Y E 1.e.y.h A Q z.z.: & 0 0 0 0 0 0 + ",
"w z.z.z.z.z.z.o + q W ~ v O.+.E 6.y.Y W z.z.z.X + 0 0 0 0 0 0 o ",
": z.z.z.z.z.z.: q O z.W V E E n 4.f.5.) z.z.z.: & > + 0 0 0 0 + ",
"+ : w : 1 : 0 + 1 * : = S +.R c 4.h.d.V 1 : 0 + + + + + & & + + ",
"+ + $ & + & + X + + + - D ,.R t O.t.w.i : 0 $ . & > : 0 0 0 : X ",
"$ 0 0 0 0 0 & + & + , N R ,.R e ] e.8.F W z.z.+ 1 z.z.z.z.z.z.: ",
"+ 0 0 0 0 0 0 o + & 2 s R ,.+.b l 6.r.@.Q z.z.: q z.z.z.z.z.z.* ",
"$ q 0 0 0 0 0 + & 0 6 r v E o.O.l &.a.{ ^ w L o 0 z.z.z.z.z.L # ",
"& 0 0 0 0 0 0 + & 0 5 p f g g u s &.e.9.{ T w o 1 z.z.z.z.z.z.: ",
"+ 0 0 0 0 & + o + 0 0 7 7 7 7 O F @.e.h.g.w.W o q z.z.z.z.z.L o ",
"& 0 0 0 0 & 0 + & 0 0 0 0 0 0 + a `  .%.[ P z.: : q z.z.z.z.L : ",
"+ + + + & $ + + + + + + & $ + + + : w 1 1 : 0 + + : 0 : 1 : 0 + "
};
