/* XPM */
static char *result[] = {
/* columns rows colors chars-per-pixel */
"32 32 142 2 ",
"   c black",
".  c #0C0808",
"X  c #181111",
"o  c #251919",
"O  c #33221B",
"+  c #3D281F",
"@  c #312222",
"#  c #342A2A",
"$  c #3B3232",
"%  c #583C27",
"&  c #403333",
"*  c #453B3B",
"=  c #5C4230",
"-  c #7E5227",
";  c #7C5128",
":  c #604532",
">  c #634935",
",  c #4F4444",
"<  c #554B4B",
"1  c #5E5555",
"2  c #654E40",
"3  c #755E4B",
"4  c #605551",
"5  c #655C5C",
"6  c #79634E",
"7  c #756254",
"8  c #7D6550",
"9  c #71635A",
"0  c #6D6666",
"q  c #746C6C",
"w  c #7C7575",
"e  c #835527",
"r  c #935C24",
"t  c #895F34",
"y  c #9E682F",
"u  c #9B6732",
"i  c #996734",
"p  c #9D6F3C",
"a  c #B7772E",
"s  c #A46F37",
"d  c #A9763E",
"f  c #BC7C35",
"g  c #B17838",
"h  c #84694D",
"j  c #946F47",
"k  c #9C7144",
"l  c #8C745E",
"z  c #A27441",
"x  c #AC7A44",
"c  c #A37748",
"v  c #A67B4F",
"b  c #AB7E4E",
"n  c #B77E41",
"m  c #B27E49",
"M  c #837060",
"N  c #8D7B6D",
"B  c #947961",
"V  c #917D6E",
"C  c #837C7C",
"Z  c #C7863E",
"A  c #D0893B",
"S  c #B4814C",
"D  c #BA834A",
"F  c #AF8354",
"G  c #B28351",
"H  c #B18951",
"J  c #B38759",
"K  c #BB8B5A",
"L  c #BD975C",
"P  c #95806D",
"I  c #958273",
"U  c #9F8976",
"Y  c #99877A",
"T  c #AF8A64",
"R  c #B38C65",
"E  c #BD956B",
"W  c #C28746",
"Q  c #C48847",
"!  c #C18748",
"~  c #C48A4A",
"^  c #C98E4C",
"/  c #D28E43",
"(  c #C78C55",
")  c #CA8F50",
"_  c #C49756",
"`  c #CE9354",
"'  c #C3925D",
"]  c #CF9659",
"[  c #D19554",
"{  c #D69954",
"}  c #DB9952",
"|  c #D19759",
" . c #D49C5D",
".. c #D99D5B",
"X. c #EA9D4D",
"o. c #E19D52",
"O. c #DFAE57",
"+. c #DDA25C",
"@. c #E4A35D",
"#. c #E9A65D",
"$. c #CB8F64",
"%. c #CE9960",
"&. c #C5996A",
"*. c #D29C63",
"=. c #D6A066",
"-. c #DBA265",
";. c #DAA468",
":. c #DEA86E",
">. c #E4A863",
",. c #EAA963",
"<. c #E3A968",
"1. c #EBAD6A",
"2. c #F1AD60",
"3. c #F0AF69",
"4. c #E8B567",
"5. c #EDB16D",
"6. c #F8BD6F",
"7. c #E6AF72",
"8. c #E4B474",
"9. c #EFB370",
"0. c #F2B673",
"q. c #F4BA7A",
"w. c #FABE7B",
"e. c #EDC26E",
"r. c #F8C26E",
"t. c #FBC47B",
"y. c #FBD27E",
"u. c #755C9A",
"i. c #5351A9",
"p. c #9678BF",
"a. c #8B8484",
"s. c #BCA498",
"d. c #EAB183",
"f. c #F1B98A",
"g. c #F6C185",
"h. c #FFC281",
"j. c #FFCB81",
"k. c #FFD281",
"l. c #FFDB81",
"z. c #FFE480",
"x. c #F2C7A0",
"c. c #A08DD3",
/* pixels */
"& , , 0 0 0 , X X   , 0 l ) X.X.X.X.X.D M 0 & X & , , 0 0 0 , X ",
"5 a.a.a.a.a.a., X a.a.Y &.3.6.r.r.r.6.1.E a.a.X 5 a.a.a.a.a.a., ",
"w a.a.a.a.a.a.* w a.U &.9.j.l.z.z.z.l.t.>.a.a.X w a.a.a.a.a.a.* ",
"w a.a.a.a.a.a.# w a.R ,.t.j.j.k.k.k.j.j.2.a.a.@ w a.a.a.a.a.a.# ",
"1 a.a.a.a.a.a., 1 a.R #.t.h.h.h.h.h.h.t.2.a.a., 1 a.a.a.a.a.a., ",
"w a.a.a.a.a.a.o w a.T >.h.h.h.h.h.h.h.h.2.a.a.o w a.a.a.a.a.a.o ",
", a.a.a.a.a.a., , a.T @.h.h.h.h.h.h.h.t.#.a.a., , a.a.a.P p., 0 ",
"@ , w , 1 , 0 @ @ , B m ,.3.3.w.q.F 6 J { , 0 @ @ , w = < & , & ",
"$ , , X 0 < $ X @ @ & : u A o.w.g.s.i.u.' & @ X @ @ $ $ # $ O X ",
"5 a.a.a.X < w , & 0 0 0 8 y Z 9.h.x.c.p.$.& & @ $ 0 0 0 @ 0 @ # ",
"w a.a.a.a.@ q * @ 0 0 0 7 p Q [ ,.0.f.d.( 4 0 o @ 0 0 0 @ @ $ o ",
"w a.a.a.a.1 q # & 0 0 0 h S ;.| f f } } t @ @ @ $ 0 0 0 0 $ 0 O ",
"1 a.a.a.a.X q & & 0 0 9 j *.w.q.;.~ a r 6 @ 0 @ & 0 0 0 0 0 0 @ ",
"w a.a.a.a.a.4 . @ 0 0 7 k >.z.y.j.w.{ - 9 & @ @ @ 0 0 0 0 0 0 o ",
", a.a.a.X 0 @ & & 0 0 7 k +.y.y.t.w.+.t 7 , @ @ & 0 0 0 0 0 0 @ ",
"@ , w , * & # @ @ @ @ + e / 0.q.,.1.| ; # & , @ @ @ @ @ & & @ @ ",
". < * , 0 0 , X $ , = 0 h ( 9.0.@.{ x h 1   , X @ @ & * @ & @ X ",
"4 , q a.a.a.a., 5 a.a.a.I K *.:.[ W c N a.a.* , & 0 0 0 0 0 & @ ",
", C a.a.a.a.Y * w a.a.a.I $.9.0...! c N a.a.a.X @ 0 0 0 0 0 0 o ",
", a.a.a.a.a.u.# w a.a.a.I K 1.>.` ] b N a.a.a.X & 0 0 0 0 0 0 @ ",
"1 a.a.a.a.a.a., , a.a.a.N b -.{ `  .F N a.a.a., & 0 0 0 0 0 0 @ ",
"w a.a.a.a.a.a.o @ q a.a.N v [ ^ ^ -.G N a.a.a.o @ 0 0 0 0 0 0 o ",
", a.a.a.a.a.a., q @ a.a.a.B s n ;.5.' I a.a.a., & , @ 0 0 0 0 @ ",
"# , w , 1 , 0 @ 1 * , , 1 > p ' 8.e.L 2 1 , 0 @ @ @ @ @ & & @ @ ",
"O @ $ & # $ @ X @ @ @ & @ % i %.:.+.j O , 0 $ . & , , 0 0 0 , X ",
"$ 0 0 0 0 0 $ @ & @ , 0 0 8 u =.;.S B w C a.a.@ 4 a.a.a.a.a.a., ",
"@ 0 0 0 0 0 0 o @ & 1 0 0 7 x -.%.g z P C a.a., q a.a.a.a.a.a.* ",
"$ 0 0 0 0 0 0 O & 0 0 0 0 8 x =.%.! ^ s V w C o 0 a.a.a.a.a.C # ",
"& 0 0 0 0 0 0 # & 0 0 0 0 8 x ;.:.{ { d 3 C w o 1 a.a.a.a.a.a., ",
"@ 0 0 0 0 $ O o @ 0 0 0 0 8 S =.7.4.O.H I a.a.o q a.a.a.a.a.C o ",
"& 0 0 0 0 & 0 @ & 0 0 0 0 M F ` <.4.4._ U a.a., , q a.a.a.a.C , ",
"@ @ @ @ & $ @ @ @ @ @ @ $ = y Z / A a p 7 , 0 @ @ , 0 , 1 , 0 @ "
};
