/* XPM */
static char *result[] = {
/* columns rows colors chars-per-pixel */
"32 32 46 1 ",
"  c #301807",
". c #4E0000",
"X c #660100",
"o c #661600",
"O c #7E1600",
"+ c #54331A",
"@ c #685D0C",
"# c #50404A",
"$ c #5E4B57",
"% c #7F5159",
"& c #6E5967",
"* c #8F2308",
"= c #903600",
"- c #A5310A",
"; c #B43B0B",
": c #9C4D0D",
"> c #8A6431",
", c #C66314",
"< c #C67D19",
"1 c #D25B2B",
"2 c #845F44",
"3 c #875C5F",
"4 c #945F69",
"5 c #906C69",
"6 c #926475",
"7 c #AD707B",
"8 c #A77F7B",
"9 c #9C8E1F",
"0 c #968C3D",
"q c #E49E3F",
"w c #AE8A5A",
"e c #9A8279",
"r c #F68D4D",
"t c #CCA777",
"y c #FFD57F",
"u c #B77F83",
"i c #C39490",
"p c #D1B1A5",
"a c #E7CFA3",
"s c #F9DDBB",
"d c #FFE8CD",
"f c #FAECD0",
"g c #FCF3DF",
"h c #FFFBF3",
"j c white",
"k c None",
/* pixels */
"kkkkkkkkkkkkkkkkkkkkkkkkkkkkkkkk",
"&&&&&&&&&&&&&&&&&&&&&&&&&&&&&&&&",
"iiipppppiipiiiiiiiiiiiiiiiii7&7i",
"iiiiiiiiiii2222222222iiiiiiii&ii",
"iiiiiiii22wajjjjjjjjaw227ii&&&ii",
"iiiiii+>ajjjjjj....jjjja2+iiu&ii",
"iiiii+ajjjjd..O;;--O.jjjja+ii&ii",
"iiii+ajjj::O;;00*;;;-..ajja+i&ii",
"iii2ajja:qO--;-0@*@0*-;.ajja2&7i",
"&&&wjja:qO-;1;-;*@*;;;;-.tjjw&&&",
"pi aja:q.-;9;-*-;;@;;;-*.atja pp",
"iiwjjt:,;**-;;;;;;;;;@;;X:tjjwii",
"i ajj:q.--;1;;@;;1r1;;-;O:ajja i",
"i jja:y*;1-;-@;;1;-;;r;-.y:ajj i",
"i jjtoq,O-*-;1r-*-;;1-*Oyq:tjj 8",
"i jjt<yyX*-@9;---;@;-**X,y<tjj 5",
"i jjt:yqy,**-;*-*-****Xyyy:tjj 5",
"& jjta<y,y.*****O***OX,qq,oajj #",
"i jjaf:yqy,X;;;X,qXO,y,y,otsjj 5",
"i fjjsa<=0qyXOOqyyqyqyqyq:sfjf 5",
"ii jjafa:qyqy,y,,qyq@qq,:fajj 55",
"ii fjfsfa:qy@qyqyyqyyy:ofahjf 58",
"iii2jjfaha:<yyqyqqo<:<ahafjj2#5i",
"iii fjhfahsa<::<::asghhafhjf #8i",
"iiii2fhjfasghhhhhhhhgsafjhf2%#7i",
"&&&&$ fhhhjssssssssssjjjjf ##$&&",
"iiiii8 2fjjjjjjjjjjjjjjf2 ee8iii",
"iiiiii85  2fjjjjjjjjf2  5558iiii",
"ii777ii455#          %%%%%477777",
"iiipiiipp8e53#555553%%%%47777777",
"iiiiiiiiiiii8#55555%%47777777777",
"iiiiiiiiiiiii&iiiii77777776&&&&&"
};