/* XPM */
static char *_5cab8e1b054471696e78f7bf792bf35bLiowTYkhzQMpMbQ[] = {
/* columns rows colors chars-per-pixel */
"32 32 131 2 ",
"   c None",
".  c #0A0C0E",
"X  c #0C0E11",
"o  c #0E1012",
"O  c #111316",
"+  c #141619",
"@  c #16191D",
"#  c #191B1E",
"$  c #171B20",
"%  c #1A1D22",
"&  c #1E2125",
"*  c #202326",
"=  c #23262A",
"-  c #26292D",
";  c #292B2E",
":  c #262A31",
">  c #2A2E33",
",  c #2E3136",
"<  c #2E3339",
"1  c #323336",
"2  c #32353A",
"3  c #35393E",
"4  c #393B3D",
"5  c #363A41",
"6  c #3A3E42",
"7  c #3D4145",
"8  c #3E4349",
"9  c #424346",
"0  c #42454A",
"q  c #45494E",
"w  c #4A4B4D",
"e  c #474B50",
"r  c #4A4D52",
"t  c #4E5155",
"y  c #505357",
"u  c #525354",
"i  c #535455",
"p  c #545556",
"a  c #525456",
"s  c #515458",
"d  c #515459",
"f  c #525458",
"g  c #525558",
"h  c #525559",
"j  c #535559",
"k  c #53555A",
"l  c #53565A",
"z  c #565658",
"x  c #54565A",
"c  c #54575B",
"v  c #55575B",
"b  c #54575C",
"n  c #525559",
"m  c #55585B",
"M  c #57585A",
"N  c #55585C",
"B  c #56595C",
"V  c #57595C",
"C  c #575A5D",
"Z  c #56595C",
"A  c #585859",
"S  c #58595B",
"D  c #585A5E",
"F  c #5C5D5F",
"G  c #5E5E5F",
"H  c #5A5B5D",
"J  c #5B5D60",
"K  c #5D5E60",
"L  c #5C5E61",
"P  c #5D5E61",
"I  c #5D5F62",
"U  c #5E5F62",
"Y  c #5C5E61",
"T  c #5E6063",
"R  c #5F6063",
"E  c #5F6062",
"W  c #606061",
"Q  c #606162",
"!  c #606264",
"~  c #606265",
"^  c #616265",
"/  c #616365",
"(  c #626364",
")  c #616366",
"_  c #626465",
"`  c #636466",
"'  c #646567",
"]  c #636465",
"[  c #656769",
"{  c #666768",
"}  c #666769",
"|  c #646668",
" . c #676869",
".. c #67686A",
"X. c DimGray",
"o. c #68696A",
"O. c #68696B",
"+. c #696A6B",
"@. c #6B6A6B",
"#. c #696B6C",
"$. c #6A6B6C",
"%. c #6B6B6C",
"&. c #6B6C6D",
"*. c #6C6C6C",
"=. c #6C6C6D",
"-. c #6C6C6E",
";. c #6C6D6E",
":. c #6D6D6E",
">. c #6C6D6F",
",. c #6D6D6F",
"<. c #6B6C6D",
"1. c #6F6F70",
"2. c #6F6F71",
"3. c #6F7071",
"4. c #6F7071",
"5. c #707171",
"6. c #717171",
"7. c #707172",
"8. c #717172",
"9. c #727273",
"0. c #737474",
"q. c #747475",
"w. c gray46",
"e. c #757576",
"r. c #767677",
"t. c #777777",
"y. c #737373",
"u. c #777778",
"i. c #797979",
"p. c #7D7D7E",
"a. c #7A7A7A",
/* pixels */
"  2 2 , 1 % @ # % = = &   O & % @ O * #   X @ & - - - = @       ",
"1 ) 7.C q : > 5 7 q t h 6 2 M 7 q 9 9 3 @ % 5 e t r t 0 - & =   ",
"2 ,.,.I q > 6 r C I *.3.u 0 @.u u M u e - 2 M ' %.@...t ; t r = ",
"& r h q > : e t h J &.w.S 1 ( @.J C h q = 7 &.,.7.w.u.t * 6 7 + ",
"O , 7 1 & ; r I ' ' t.i.9 # 9 { 2.%.d : $ 7 7.w.t.@.9 , 3 : = @ ",
". = 0 F F 4 4 [ p.&.0.E - * * 7 ( t : : % & 7 t 9 ; ; q t q 5 & ",
"+ 4 w E t.( 2 2 &.w.S 2 2 8 3 7 7 5 < 5 : & , 5 3 , u *.' r 8 = ",
"- E ( q t t 7 & * 1 3 8 0 0 w @.M 8 6 5 , 7 q e 7 0 7.,.C t t ; ",
"& 0 9 6 e r 8 : - , e t h u F 7.h e t 5 2 e q 0 6 M 7.I t M t = ",
"O : 6 q r e 5 = > < t R ,.*.*.,.h M [ w 3 t h ' ( t { E { ' q # ",
"+ = 5 7 6 3 : 2 5 < t %.3.0.&.0.&.,.0.F 9 @.7.w.0.E w w u p ;   ",
"  $ % & : 3 0 e 6 5 t 0.w.' 6 C *.,.] q 1 @.6.@.,.6.*.4 % & % O ",
"    % 1 r s h r 6 8 0 9 4 2 , , 2 6 w 4 = W a.0.0.i.J : , , : % ",
"    : q [ &...t r k r , , 0 q q t @.3.,.9 3 S X.( q ; 5 6 5 5 & ",
"  , 8 u p.a.@.D O.2.O.7 q e q e ' 3.' ..' 3 6 5 3 ; < e 8 7 e = ",
"@ 6 d t ( 0.%.%.q.p...2 8 7 6 e J &.F F ) 7 h C e , 7 e e q e = ",
"= q l ' p 6.0.0.i.E ; & < 7 0 C ..' q d F 7 ' &.r , 8 e t b q * ",
"= 0 u *.( S *.E 9 ; 7 * 5 e r M ....d t 7 w ' F 0 , 7 r [ @.r = ",
"% 7 u 1.:.] S 1 , , 7 , 3 q r F 1.7.' 7 3 ( ' D r = = 6 p u 1 + ",
"+ < t 6.6.1.,.9 H w 7 q 1 : 4 q w 9 3 & ; G 0.E 4 % > 7 6 3 , + ",
"  & 6 O.0.w.M w 1.0.' t , , 7 7 7 9 9 ; 7 p t q 5 1 F I r q 5 % ",
"  & = r ,.H 9 *.w.1.F r 9 W H t t u _ w ' 6.u 0 5 w 0.[ s e 7 % ",
"  : 3 3 4 & , 3...F t q 9 ,.,.I t d ' u 0.p.X.q 2 w 7.@.c r 0 $ ",
"@ 3 e t t 4 * 4 q 0 3 - 9 6.' S e d C u 1.0.0.F 6 6 =.2.C r 6 + ",
"& q T 2.&.b 5 & % % % + 1 ,...D r J F 9 I [ @.D q 1 A 0.D r > + ",
"- e C C t t q > $ < 3 2 7 @.7.D r u w ; 3 7 0 7 5 : ; S V 6 *   ",
"& q 8 5 6 8 q < = q r 7 w 9 9 2 : 4 w F w * % = - * 1 2 2 - $   ",
"@ 7 e q b J e < = h 3.t D 6 # % * p R R u 3 $ % $ w [ 0 6 5 &   ",
"  : 0 s 3.R 8 , % p ,.@.| , % & = 3 w 0 8 5 % 6 2 ( @.0 J J < o ",
"  % < 0 b q < % # w 7.' 5 ; p c 6 : 3 0 < > : q 2 S =.u J ) 5 $ ",
"    $ : < : % & * * 1 - # t ' M 8 < # , > & * 2 % 1 H u D D ,   ",
"      X X X   + +       + * ; - - # . O #     . . O # & ; % O   "
};
